<?xml version="1.0" encoding="utf-8"?>
<!-- Generator: Adobe Illustrator 16.0.0, SVG Export Plug-In . SVG Version: 6.00 Build 0)  -->
<!DOCTYPE svg PUBLIC "-//W3C//DTD SVG 1.1//EN" "http://www.w3.org/Graphics/SVG/1.1/DTD/svg11.dtd">
<svg version="1.1" id="Capa_1" xmlns="http://www.w3.org/2000/svg" xmlns:xlink="http://www.w3.org/1999/xlink" x="0px" y="0px"
	 width="960px" height="560px" viewBox="0 0 960 560" enable-background="new 0 0 960 560" xml:space="preserve">
<path fill="#79B3D1" d="M746.657,542.1L589.556,378.718c40.071-40.188,64.896-95.589,64.896-156.688
	C654.451,99.596,554.855,0,432.422,0C309.989,0,210.393,99.596,210.393,222.03c0,122.433,99.596,222.028,222.029,222.028
	c53.742,0,103.064-19.211,141.507-51.088l157.482,163.784c2.072,2.167,4.843,3.246,7.623,3.246c2.644,0,5.275-0.983,7.327-2.95
	C750.569,553,750.696,546.308,746.657,542.1z M432.422,422.912c-110.771,0-200.883-90.112-200.883-200.883
	c0-110.771,90.112-200.884,200.883-200.884c110.771,0,200.884,90.112,200.884,200.884
	C633.306,332.8,543.184,422.912,432.422,422.912z"/>
</svg>
