<?xml version="1.0" encoding="utf-8"?>
<!-- Generator: Adobe Illustrator 16.0.0, SVG Export Plug-In . SVG Version: 6.00 Build 0)  -->
<!DOCTYPE svg PUBLIC "-//W3C//DTD SVG 1.1//EN" "http://www.w3.org/Graphics/SVG/1.1/DTD/svg11.dtd">
<svg version="1.1" id="Capa_1" xmlns="http://www.w3.org/2000/svg" xmlns:xlink="http://www.w3.org/1999/xlink" x="0px" y="0px"
	 width="960px" height="560px" viewBox="0 0 960 560" enable-background="new 0 0 960 560" xml:space="preserve">
<g>
	<g>
		<path fill="#79B3D1" d="M732.953,391.213c-1.619-1.682-3.752-2.776-6.062-3.111v0.421l-39.096-5.676l-16.395-33.21V203.135
			c13.872,5.044,27.851,10.509,42.038,17.445c5.253,2.496,11.534,0.262,14.03-4.992c2.495-5.253,0.261-11.534-4.992-14.03
			c-18.407-8.701-37.323-16.281-56.646-22.7l-1.681-0.525c-56.799-18.482-116.201-27.708-175.929-27.324v-36.994
			c31.214-5.804,51.813-35.813,46.009-67.027c-5.804-31.215-35.814-51.812-67.029-46.008c-31.214,5.804-51.813,35.813-46.009,67.028
			c4.347,23.374,22.634,41.662,46.009,46.009v37.309c-59.212,2.268-117.9,12.014-174.667,29.006
			c-1.019,0.123-2.012,0.407-2.942,0.841c-19.2,5.629-38.045,12.401-56.436,20.283c-5.282,2.438-7.587,8.695-5.149,13.978
			s8.695,7.588,13.978,5.149c0.63,0,15.764-7.146,42.038-15.659v138.936c-38.453,5.804-64.919,41.682-59.115,80.134
			c5.804,38.453,41.682,64.92,80.134,59.116s64.919-41.682,59.116-80.135c-4.61-30.536-28.579-54.506-59.116-59.115V198.51
			c52.889-15.333,107.45-24.157,162.476-26.273v210.188c-48.317,11.819-77.905,60.57-66.086,108.888s60.57,77.905,108.887,66.086
			c16.321-3.992,31.202-12.471,42.956-24.478c4.059-4.15,3.984-10.804-0.165-14.862c-2.48-2.425-5.997-3.471-9.398-2.794
			c-25.161,5.007-49.617-11.33-54.624-36.493c-5.006-25.16,11.331-49.617,36.493-54.624c5.985-1.191,12.146-1.191,18.133,0h1.996
			c5.804,0.045,10.545-4.624,10.59-10.428c0.026-3.463-1.653-6.717-4.494-8.699c-16.801-16.564-39.464-25.817-63.057-25.748h-0.946
			V171.921c55.102-0.386,109.935,7.696,162.582,23.962v153.753l-16.395,33.21l-38.676,5.675c-5.736,0.881-9.674,6.245-8.792,11.982
			c0.32,2.085,1.26,4.025,2.697,5.568l28.271,27.535l-6.621,38.885c-0.988,5.72,2.85,11.157,8.569,12.144
			c0.641,0.11,1.29,0.162,1.939,0.152c1.726-0.009,3.421-0.441,4.939-1.261l34.892-18.392l34.997,18.392
			c5.309,2.349,11.514-0.052,13.863-5.358c0.729-1.65,1.022-3.461,0.85-5.255l-6.621-38.885l28.376-27.955
			C736.852,402.047,736.978,395.393,732.953,391.213z M343.085,413.428c0,27.28-22.115,49.395-49.395,49.395
			s-49.395-22.114-49.395-49.395c0-27.279,22.115-49.394,49.395-49.394C320.947,364.092,343.027,386.173,343.085,413.428z
			 M488.535,400.712l0.105-0.105c8.672-0.004,17.268,1.637,25.328,4.835c-35.551,11.166-55.319,49.037-44.153,84.588
			c6.612,21.052,23.102,37.541,44.153,44.152c-35.522,14.029-75.69-3.395-89.72-38.916c-14.028-35.522,3.395-75.69,38.917-89.72
			C471.244,402.357,479.851,400.716,488.535,400.712z M477.501,93.942c-20.141,0-36.468-16.328-36.468-36.468
			c0-20.141,16.327-36.468,36.468-36.468c20.14,0,36.468,16.327,36.468,36.468C513.969,77.614,497.643,93.942,477.501,93.942z
			 M685.798,422.781c-2.468,2.397-3.607,5.853-3.048,9.249l3.994,23.331l-21.02-11.035c-3.06-1.606-6.714-1.606-9.773,0
			l-21.019,10.509l3.993-23.33c0.56-3.396-0.579-6.852-3.048-9.249l-16.814-16.185l23.436-3.362c3.418-0.514,6.365-2.675,7.882-5.78
			l10.51-21.02l10.51,21.02c1.517,3.105,4.464,5.267,7.882,5.78l23.437,3.362L685.798,422.781z"/>
	</g>
</g>
</svg>
