<?xml version="1.0" encoding="utf-8"?>
<!-- Generator: Adobe Illustrator 16.0.0, SVG Export Plug-In . SVG Version: 6.00 Build 0)  -->
<!DOCTYPE svg PUBLIC "-//W3C//DTD SVG 1.1//EN" "http://www.w3.org/Graphics/SVG/1.1/DTD/svg11.dtd">
<svg version="1.1" id="Capa_1" xmlns="http://www.w3.org/2000/svg" xmlns:xlink="http://www.w3.org/1999/xlink" x="0px" y="0px"
	 width="960px" height="560px" viewBox="0 0 960 560" enable-background="new 0 0 960 560" xml:space="preserve">
<g>
	<g>
		<path fill="#79B3D1" d="M578.438,348.906c-6.04,0-10.938,4.896-10.938,10.938v75.469c0,30.154-24.533,54.688-54.688,54.688
			h-118.09c-6.039,0-10.933,4.892-10.938,10.93l-0.016,21.746l-26.105-26.105c-1.69-3.879-5.557-6.57-10.031-6.57h-71.071
			c-30.155,0-54.688-24.533-54.688-54.688V266.875c0-30.155,24.533-54.688,54.688-54.688h110.469c6.04,0,10.938-4.897,10.938-10.938
			c0-6.041-4.898-10.938-10.938-10.938H276.563c-42.217,0-76.563,34.346-76.563,76.563v168.438
			c0,42.216,34.346,76.563,76.563,76.563h65.47l44.921,44.921c2.092,2.093,4.889,3.203,7.736,3.203c1.408,0,2.829-0.271,4.18-0.831
			c4.087-1.69,6.752-5.677,6.756-10.099l0.026-37.194h107.161c42.217,0,76.563-34.347,76.563-76.563v-75.469
			C589.375,353.803,584.478,348.906,578.438,348.906z"/>
	</g>
</g>
<g>
	<g>
		<path fill="#79B3D1" d="M601.029,0h-27.682c-87.658,0-158.973,71.314-158.973,158.972c0,87.658,71.314,158.971,158.971,158.971
			h27.682c13.683,0,27.224-1.737,40.349-5.172l40.893,40.869c2.092,2.09,4.888,3.201,7.733,3.201c1.41,0,2.832-0.272,4.185-0.833
			c4.087-1.693,6.751-5.682,6.751-10.104v-63.279c17.313-14.021,31.694-31.732,41.788-51.519
			C754.188,208.634,760,184.365,760,158.972C760,71.315,688.686,0,601.029,0z M683.419,268.554
			c-2.742,2.066-4.356,5.302-4.356,8.737v42.218l-26.766-26.75c-2.082-2.081-4.875-3.202-7.732-3.202
			c-1.072,0-2.154,0.159-3.211,0.483c-13.02,4.001-26.586,6.029-40.324,6.029h-27.682c-75.598,0-137.098-61.502-137.098-137.098
			S497.752,21.875,573.348,21.875h27.682c75.596,0,137.096,61.501,137.096,137.097C738.125,202.428,718.186,242.369,683.419,268.554
			z"/>
	</g>
</g>
<g>
	<g>
		<path fill="#79B3D1" d="M636.442,119.679c-1.578-22.897-20.036-41.355-42.936-42.934c-12.98-0.892-25.368,3.486-34.85,12.338
			c-9.352,8.729-14.715,21.069-14.715,33.856c0,6.041,4.898,10.938,10.938,10.938c6.04,0,10.938-4.896,10.938-10.938
			c0-6.846,2.759-13.19,7.766-17.864c5.003-4.669,11.542-6.98,18.421-6.506c12.063,0.831,21.785,10.554,22.616,22.614
			c0.84,12.182-7.152,22.946-19.002,25.598c-9.601,2.147-16.306,10.491-16.306,20.288v26.277c0,6.04,4.897,10.938,10.938,10.938
			c6.041,0,10.938-4.897,10.937-10.938v-25.404C623.226,162.618,638.012,142.452,636.442,119.679z"/>
	</g>
</g>
<g>
	<g>
		<path fill="#79B3D1" d="M597.982,228.878c-2.034-2.034-4.855-3.205-7.732-3.205s-5.698,1.171-7.732,3.205
			c-2.035,2.034-3.205,4.856-3.205,7.732c0,2.888,1.172,5.71,3.205,7.744c2.034,2.034,4.855,3.193,7.732,3.193
			s5.698-1.159,7.732-3.193c2.035-2.045,3.205-4.856,3.205-7.744C601.188,233.735,600.016,230.912,597.982,228.878z"/>
	</g>
</g>
<g>
	<g>
		<path fill="#79B3D1" d="M500.781,339.063H270c-6.04,0-10.938,4.896-10.938,10.938c0,6.04,4.898,10.938,10.938,10.938h230.781
			c6.041,0,10.938-4.897,10.938-10.938C511.719,343.959,506.821,339.063,500.781,339.063z"/>
	</g>
</g>
<g>
	<g>
		<path fill="#79B3D1" d="M508.513,403.517c-2.033-2.034-4.854-3.204-7.731-3.204s-5.698,1.17-7.732,3.204
			c-2.036,2.034-3.205,4.856-3.205,7.733c0,2.876,1.17,5.698,3.205,7.732c2.034,2.034,4.855,3.205,7.732,3.205
			s5.698-1.171,7.731-3.205c2.036-2.034,3.206-4.846,3.206-7.732C511.719,408.373,510.547,405.551,508.513,403.517z"/>
	</g>
</g>
<g>
	<g>
		<path fill="#79B3D1" d="M457.761,400.313H270c-6.04,0-10.938,4.896-10.938,10.938c0,6.04,4.898,10.938,10.938,10.938h187.761
			c6.041,0,10.938-4.897,10.938-10.938C468.698,405.209,463.801,400.313,457.761,400.313z"/>
	</g>
</g>
<g>
	<g>
		<path fill="#79B3D1" d="M429.688,277.813H270c-6.04,0-10.938,4.896-10.938,10.938s4.898,10.938,10.938,10.938h159.688
			c6.041,0,10.938-4.896,10.938-10.938S435.728,277.813,429.688,277.813z"/>
	</g>
</g>
</svg>
