<?xml version="1.0" encoding="utf-8"?>
<!-- Generator: Adobe Illustrator 16.0.0, SVG Export Plug-In . SVG Version: 6.00 Build 0)  -->
<!DOCTYPE svg PUBLIC "-//W3C//DTD SVG 1.1//EN" "http://www.w3.org/Graphics/SVG/1.1/DTD/svg11.dtd">
<svg version="1.1" id="Capa_1" xmlns="http://www.w3.org/2000/svg" xmlns:xlink="http://www.w3.org/1999/xlink" x="0px" y="0px"
	 width="960px" height="560px" viewBox="0 0 960 560" enable-background="new 0 0 960 560" xml:space="preserve">
<g>
	<g>
		<path fill="#79B3D1" d="M749.146,112.542c-0.037,0-0.073,0-0.108,0l0,0h-36.798V99.951c0.197-4.984-3.026-9.463-7.815-10.855
			c-25.547-6.694-51.854-10.051-78.264-9.986c-43.419,0-102.578,9.77-146.323,54.274C436.418,88.445,376.825,79.11,333.514,79.11
			c-26.41-0.064-52.716,3.292-78.263,9.986c-4.79,1.393-8.014,5.871-7.815,10.855v12.482h-36.581
			c-5.995,0-10.855,4.86-10.855,10.855v346.702c0,5.995,4.86,10.854,10.855,10.854c1.864-0.005,3.696-0.49,5.319-1.411
			c1.085-0.542,109.633-59.918,261.167-21.709h1.628h0.977c0.866,0.104,1.74,0.104,2.605,0
			c151.968-38.535,260.516,20.732,261.167,21.709c3.358,1.939,7.496,1.939,10.854,0c3.338-1.927,5.404-5.479,5.428-9.335V123.398
			C760,117.403,755.141,112.542,749.146,112.542z M221.709,452.733v-318.48h25.943V406.49c-0.068,5.995,4.737,10.909,10.731,10.978
			c0.586,0.007,1.172-0.034,1.752-0.122c22.456-3.429,45.127-5.243,67.843-5.428c31.465-0.545,62.799,4.188,92.7,14.003
			C353.155,417.755,284.664,426.985,221.709,452.733z M327.979,390.318c-19.744,0.044-39.464,1.313-59.05,3.799v-285.59
			c21.134-4.708,42.716-7.111,64.369-7.164c40.597,0,96.608,9.335,135.468,53.188l0.325,270.394
			C446.513,410.182,402.442,390.318,327.979,390.318z M490.801,154.551c38.86-43.42,94.871-53.188,135.468-53.188
			c21.651,0.063,43.233,2.465,64.369,7.164v285.59c-19.477-2.509-39.088-3.814-58.725-3.908c-74.03,0-118.209,19.864-141.112,34.627
			V154.551z M738.182,452.733c-63.088-25.818-131.736-35.049-199.402-26.812c30.042-9.851,61.524-14.585,93.134-14.003
			c22.857,0.128,45.676,1.905,68.276,5.319c5.928,0.899,11.462-3.177,12.361-9.104c0.088-0.579,0.129-1.165,0.122-1.752v-272.13
			h25.943L738.182,452.733z"/>
	</g>
</g>
</svg>
