<?xml version="1.0" encoding="utf-8"?>
<!-- Generator: Adobe Illustrator 16.0.0, SVG Export Plug-In . SVG Version: 6.00 Build 0)  -->
<!DOCTYPE svg PUBLIC "-//W3C//DTD SVG 1.1//EN" "http://www.w3.org/Graphics/SVG/1.1/DTD/svg11.dtd">
<svg version="1.1" id="Capa_1" xmlns="http://www.w3.org/2000/svg" xmlns:xlink="http://www.w3.org/1999/xlink" x="0px" y="0px"
	 width="400px" height="400px" viewBox="42.605 42.606 400 400" enable-background="new 42.605 42.606 400 400"
	 xml:space="preserve">
<g>
	<path fill="#AAAAAA" d="M366.13,316.123h-24.506c-27.065,0-49.011-21.945-49.011-49.012v-15.744
		c10.843-12.887,18.619-28.13,23.453-44.236c0.502-2.716,3.113-4.057,4.857-5.923c9.383-9.38,11.228-25.212,4.19-36.482
		c-0.959-1.711-2.684-3.195-2.587-5.314c0-14.369,0.072-28.764-0.018-43.122c-0.386-17.337-5.339-35.371-17.493-48.208
		c-9.813-10.373-23.287-16.549-37.188-19.191c-17.566-3.351-35.943-3.182-53.341,1.244c-15.077,3.805-29.243,12.635-38.001,25.726
		c-7.756,11.379-11.154,25.197-11.728,38.815c-0.215,14.621-0.05,29.278-0.094,43.934c0.334,2.935-2.155,4.92-3.279,7.35
		c-6.628,12.024-3.71,28.406,6.94,37.153c2.703,1.866,3.208,5.264,4.187,8.195c4.645,14.478,12.348,27.867,22.087,39.534v16.272
		c0,27.066-21.943,49.012-49.009,49.012h-24.508c0,0-44.413,12.247-73.514,73.512v24.507c0,13.541,10.96,24.499,24.506,24.499
		h343.067c13.543,0,24.501-10.959,24.501-24.499v-24.51C410.543,328.374,366.13,316.123,366.13,316.123z"/>
</g>
</svg>
