<?xml version="1.0" encoding="utf-8"?>
<!-- Generator: Adobe Illustrator 16.0.0, SVG Export Plug-In . SVG Version: 6.00 Build 0)  -->
<!DOCTYPE svg PUBLIC "-//W3C//DTD SVG 1.1//EN" "http://www.w3.org/Graphics/SVG/1.1/DTD/svg11.dtd">
<svg version="1.1" id="Capa_1" xmlns="http://www.w3.org/2000/svg" xmlns:xlink="http://www.w3.org/1999/xlink" x="0px" y="0px"
	 width="400px" height="400px" viewBox="0 0 400 400" enable-background="new 0 0 400 400" xml:space="preserve">
<g>
	<path fill="#AAAAAA" d="M322.526,271.55h-24.506c-27.065,0-49.011-21.944-49.011-49.012v-15.743
		c10.843-12.888,18.619-28.131,23.453-44.236c0.502-2.716,3.113-4.058,4.856-5.923c9.384-9.38,11.228-25.212,4.19-36.482
		c-0.959-1.711-2.684-3.195-2.588-5.313c0-14.369,0.072-28.765-0.018-43.122c-0.386-17.337-5.339-35.371-17.492-48.208
		c-9.813-10.373-23.287-16.549-37.188-19.191c-17.566-3.351-35.943-3.182-53.341,1.244c-15.077,3.805-29.243,12.635-38.001,25.726
		c-7.756,11.379-11.154,25.197-11.728,38.815c-0.215,14.621-0.05,29.278-0.094,43.934c0.334,2.936-2.155,4.92-3.279,7.351
		c-6.628,12.023-3.71,28.406,6.94,37.152c2.703,1.866,3.208,5.265,4.187,8.195c4.645,14.479,12.348,27.867,22.087,39.534v16.271
		c0,27.066-21.943,49.012-49.009,49.012H77.478c0,0-44.413,12.247-73.514,73.513v24.507c0,13.541,10.96,24.499,24.506,24.499
		h343.068c13.542,0,24.5-10.959,24.5-24.499v-24.51C366.939,283.801,322.526,271.55,322.526,271.55z"/>
</g>
</svg>
