<?xml version="1.0" encoding="utf-8"?>
<!-- Generator: Adobe Illustrator 16.0.0, SVG Export Plug-In . SVG Version: 6.00 Build 0)  -->
<!DOCTYPE svg PUBLIC "-//W3C//DTD SVG 1.1//EN" "http://www.w3.org/Graphics/SVG/1.1/DTD/svg11.dtd">
<svg version="1.1" id="Capa_1" xmlns="http://www.w3.org/2000/svg" xmlns:xlink="http://www.w3.org/1999/xlink" x="0px" y="0px"
	 width="400px" height="400px" viewBox="-2 -150 400 400" enable-background="new -2 -150 400 400" xml:space="preserve">
<g>
	<g>
		<g>
			<path fill="#AAAAAA" d="M254.914-96.582c-3.944-27.616-27.98-48.446-55.918-48.446c-17.964,0-35.026,8.668-45.636,23.198
				c-2.167,2.963-1.516,7.12,1.447,9.289c2.952,2.159,7.119,1.516,9.284-1.451c8.119-11.111,21.167-17.744,34.904-17.744
				c21.364,0,39.741,15.922,42.755,37.029c0.475,3.317,3.327,5.708,6.577,5.708c0.311,0,0.628-0.023,0.945-0.067
				C252.903-89.583,255.427-92.95,254.914-96.582z"/>
		</g>
	</g>
	<g>
		<g>
			<path fill="#AAAAAA" d="M350.883-22.192l-19.932-33.227c-1.203-2.002-3.362-3.226-5.697-3.226h-19.105
				c-3.668,0-6.646,2.975-6.646,6.645s2.979,6.645,6.646,6.645h15.342l11.961,19.932H64.541l11.961-19.932h7.037
				c3.67,0,6.646-2.975,6.646-6.645s-2.977-6.645-6.646-6.645H72.742c-2.335,0-4.497,1.223-5.697,3.226L47.109-22.192
				c-1.231,2.054-1.262,4.613-0.083,6.696c1.181,2.081,3.388,3.371,5.783,3.371h292.379c2.393,0,4.603-1.29,5.785-3.371
				C352.154-17.579,352.115-20.142,350.883-22.192z"/>
		</g>
	</g>
	<g>
		<g>
			<path fill="#AAAAAA" d="M317.761-83.462c-0.93-1.503-2.416-2.565-4.131-2.969l-90.586-21.186
				c-1.716-0.404-3.522-0.101-5.023,0.823c-1.493,0.929-2.554,2.416-2.963,4.133l-6.831,29.199
				c-0.834,3.572,1.391,7.148,4.962,7.979c3.568,0.838,7.145-1.384,7.979-4.957l5.321-22.727l77.646,18.163l-12.202,52.164
				c-0.834,3.572,1.39,7.146,4.958,7.979c0.514,0.117,1.026,0.176,1.524,0.176c3.017,0,5.75-2.065,6.459-5.132l13.714-58.632
				C318.99-80.162,318.691-81.969,317.761-83.462z"/>
		</g>
	</g>
	<g>
		<g>
			<path fill="#AAAAAA" d="M202.515-67.757l-6.055-51.21c-0.205-1.748-1.099-3.348-2.487-4.437
				c-1.388-1.091-3.136-1.589-4.896-1.384L77.938-111.651c-3.643,0.431-6.25,3.731-5.817,7.377l10.094,85.41
				c0.4,3.382,3.266,5.869,6.591,5.869c0.258,0,0.524-0.017,0.792-0.048c3.641-0.431,6.245-3.737,5.818-7.378l-9.315-78.818
				l97.942-11.578l5.272,44.608c0.433,3.646,3.721,6.233,7.379,5.821C200.332-60.81,202.939-64.11,202.515-67.757z"/>
		</g>
	</g>
	<g>
		<g>
			<path fill="#AAAAAA" d="M255.066-21.298l-13.193-54.85c-0.409-1.713-1.485-3.191-2.986-4.112c-1.501-0.913-3.304-1.2-5.023-0.792
				L126.814-55.311c-3.566,0.856-5.762,4.447-4.909,8.016l6.595,27.411c0.854,3.576,4.445,5.771,8.009,4.908
				c3.572-0.854,5.768-4.445,4.909-8.013l-5.042-20.954l94.125-22.633l11.64,48.383c0.727,3.045,3.453,5.088,6.455,5.088
				c0.513,0,1.033-0.06,1.558-0.184C253.727-14.145,255.924-17.73,255.066-21.298z"/>
		</g>
	</g>
	<g>
		<g>
			<path fill="#AAAAAA" d="M351.824-19.11c-0.184-3.534-3.093-6.306-6.635-6.306H52.81c-3.54,0-6.453,2.772-6.637,6.306
				L32.882,240.044c-0.09,1.814,0.565,3.599,1.819,4.916c1.256,1.317,2.996,2.067,4.82,2.067h318.958
				c1.822,0,3.561-0.75,4.824-2.067c1.248-1.317,1.907-3.094,1.814-4.916L351.824-19.11z M46.51,233.734L59.118-12.129h279.75
				l12.612,245.863H46.51z"/>
		</g>
	</g>
	<g>
		<g>
			<path fill="#AAAAAA" d="M248.834,1.162c-10.992,0-19.933,8.942-19.933,19.932c0,10.992,8.94,19.936,19.933,19.936
				c10.995,0,19.936-8.944,19.936-19.936C268.77,10.104,259.829,1.162,248.834,1.162z M248.834,27.743
				c-3.668,0-6.646-2.979-6.646-6.645s2.986-6.645,6.646-6.645s6.646,2.979,6.646,6.645S252.502,27.743,248.834,27.743z"/>
		</g>
	</g>
	<g>
		<g>
			<path fill="#AAAAAA" d="M149.162,1.162c-10.994,0-19.936,8.942-19.936,19.932c0,10.992,8.941,19.936,19.936,19.936
				c10.992,0,19.932-8.944,19.932-19.936C169.094,10.104,160.15,1.162,149.162,1.162z M149.162,27.743
				c-3.666,0-6.646-2.979-6.646-6.645s2.98-6.645,6.646-6.645s6.641,2.979,6.641,6.645S152.824,27.743,149.162,27.743z"/>
		</g>
	</g>
	<g>
		<g>
			<path fill="#AAAAAA" d="M248.834,21.098h-0.514c-3.668,0-6.639,2.975-6.639,6.645c0,0.906,0.176,1.777,0.506,2.562v33.981
				c0,23.814-19.369,43.195-43.191,43.195c-23.818,0-43.193-19.369-43.193-43.195V27.743c0-3.669-2.975-6.645-6.641-6.645
				s-6.646,2.975-6.646,6.645v36.55c0,31.143,25.336,56.48,56.48,56.48c31.146,0,56.484-25.338,56.484-56.48v-36.55
				C255.48,24.073,252.502,21.098,248.834,21.098z"/>
		</g>
	</g>
</g>
</svg>
