<?xml version="1.0" encoding="utf-8"?>
<!-- Generator: Adobe Illustrator 16.0.0, SVG Export Plug-In . SVG Version: 6.00 Build 0)  -->
<!DOCTYPE svg PUBLIC "-//W3C//DTD SVG 1.1//EN" "http://www.w3.org/Graphics/SVG/1.1/DTD/svg11.dtd">
<svg version="1.1" id="Layer_1" xmlns="http://www.w3.org/2000/svg" xmlns:xlink="http://www.w3.org/1999/xlink" x="0px" y="0px"
	 width="400px" height="400px" viewBox="280 80 400 400" enable-background="new 280 80 400 400" xml:space="preserve">
<g>
	<g>
		<path fill="#AAAAAA" d="M618.667,141.333c-36.413-36.413-84.625-56.728-136.013-57.407c-0.895-0.08-1.782-0.137-2.655-0.137
			c-0.872,0-1.76,0.057-2.655,0.137c-51.388,0.68-99.599,20.994-136.012,57.407c-37.039,37.041-57.438,86.287-57.438,138.667
			c0,52.38,20.398,101.627,57.438,138.667c36.413,36.413,84.624,56.728,136.012,57.406c0.896,0.082,1.783,0.137,2.654,0.137
			c0.873,0,1.761-0.056,2.655-0.137c51.39-0.679,99.601-20.993,136.013-57.406c37.039-37.039,57.438-86.285,57.438-138.667
			C676.105,227.619,655.707,178.373,618.667,141.333z M357.817,157.818c20.833-20.832,46.053-35.679,73.573-43.701
			c-6.203,7.14-12.233,15.354-17.844,24.455c-7.159,11.609-13.356,24.191-18.545,37.495h-53.065
			C346.764,169.679,352.057,163.578,357.817,157.818z M327.083,199.38h60.068c-6.246,21.859-9.94,45.149-10.854,68.962h-68.695
			C309.217,243.968,315.876,220.573,327.083,199.38z M327.084,360.62c-11.208-21.194-17.868-44.587-19.481-68.964h68.695
			c0.913,23.813,4.606,47.104,10.853,68.964H327.084z M357.818,402.182c-5.761-5.76-11.055-11.86-15.883-18.249h53.066
			c5.189,13.304,11.386,25.886,18.545,37.494c5.611,9.102,11.641,17.315,17.844,24.456
			C403.872,437.862,378.652,423.015,357.818,402.182z M468.342,448.099c-9.711-6.354-22.752-19.118-34.954-38.908
			c-4.893-7.936-9.292-16.387-13.18-25.257h48.134L468.342,448.099L468.342,448.099z M468.342,360.62h-56.866
			c-6.813-21.601-10.855-44.953-11.849-68.964h68.715V360.62L468.342,360.62z M468.342,268.343h-68.715
			c0.993-24.01,5.035-47.364,11.849-68.962h56.866V268.343z M468.342,176.065h-48.133c3.889-8.869,8.287-17.321,13.181-25.257
			c12.202-19.789,25.242-32.555,34.954-38.908L468.342,176.065L468.342,176.065z M632.915,199.38
			c11.209,21.193,17.869,44.587,19.481,68.962h-68.694c-0.914-23.813-4.607-47.104-10.854-68.962H632.915z M602.184,157.818
			c5.759,5.76,11.051,11.862,15.881,18.249h-53.065c-5.19-13.303-11.388-25.884-18.545-37.495
			c-5.611-9.101-11.641-17.315-17.845-24.455C556.129,122.138,581.35,136.986,602.184,157.818z M491.658,111.9
			c9.71,6.354,22.75,19.12,34.952,38.908c4.894,7.935,9.293,16.388,13.183,25.257h-48.135V111.9L491.658,111.9z M491.658,199.38
			h56.865c6.813,21.599,10.856,44.954,11.849,68.962h-68.716V199.38H491.658z M560.372,291.656
			c-0.993,24.011-5.037,47.365-11.849,68.964h-56.867v-68.964H560.372z M491.658,448.099v-64.165h48.133
			c-3.889,8.87-8.287,17.321-13.183,25.257C514.408,428.981,501.368,441.745,491.658,448.099z M602.184,402.183
			c-20.834,20.833-46.055,35.679-73.574,43.7c6.202-7.141,12.233-15.354,17.845-24.455c7.157-11.608,13.354-24.191,18.545-37.494
			h53.066C613.236,390.322,607.942,396.423,602.184,402.183z M632.915,360.62h-60.067c6.246-21.86,9.941-45.15,10.854-68.964h68.694
			C650.783,316.033,644.123,339.426,632.915,360.62z"/>
	</g>
</g>
</svg>
